<svg width="50" height="50" viewBox="0 0 50 50" fill="none" xmlns="http://www.w3.org/2000/svg">
<path d="M8.51064 35.6426C8.51064 37.9831 6.59574 39.8979 4.25532 39.8979C1.91489 39.8979 -8.37027e-08 37.9831 -1.86006e-07 35.6426L-1.32529e-06 4.5788C-1.4276e-06 2.23837 1.91489 0.323482 4.25532 0.323482C6.59574 0.323482 8.51064 2.23837 8.51064 4.5788L8.51064 35.6426Z" fill="#181717"></path>
<path d="M22.3407 45.7447C22.3407 48.0851 20.4258 50 18.0854 50C15.745 50 13.8301 48.0851 13.8301 45.7447L13.8301 14.6809C13.8301 12.3404 15.745 10.4255 18.0854 10.4255C20.4258 10.4255 22.3407 12.3404 22.3407 14.6809L22.3407 45.7447Z" fill="#181717"></path>
<path d="M36.1698 35.6426C36.1698 37.9831 34.2549 39.8979 31.9145 39.8979C29.5741 39.8979 27.6592 37.9831 27.6592 35.6426L27.6592 4.5788C27.6592 2.23837 29.5741 0.323482 31.9145 0.323482C34.2549 0.323482 36.1698 2.23837 36.1698 4.5788L36.1698 35.6426Z" fill="#181717"></path>
<path d="M49.9999 45.7447C49.9999 48.0851 48.085 50 45.7446 50C43.4042 50 41.4893 48.0851 41.4893 45.7447L41.4893 15.6809C41.4893 13.3404 43.4041 11.4255 45.7446 11.4255C48.085 11.4255 49.9999 13.3404 49.9999 15.6809L49.9999 45.7447Z" fill="#181717"></path>
</svg>