<svg width="50" height="50" viewBox="0 0 50 50" fill="none" xmlns="http://www.w3.org/2000/svg">
<path d="M41.2639 25.031C41.2639 35.254 36.2453 44.2379 28.5006 49.8141C40.6444 48.0793 50 37.6084 50 25.031C50 12.3915 40.6444 1.98262 28.5006 0.247802C36.1834 5.76205 41.2639 14.8079 41.2639 25.031Z" fill="#181717"></path>
<path d="M17.4727 48.8229C19.2075 49.3805 20.9423 49.7523 22.801 49.8762C29.5544 43.6804 33.7676 34.8204 33.7676 24.9691C33.7676 15.1178 29.4925 6.25785 22.801 0.124023C20.9423 0.309896 19.1455 0.681644 17.4727 1.17731C23.1728 7.43505 26.6424 15.7994 26.6424 25.0311C26.6424 34.2628 23.1728 42.5652 17.4727 48.8229Z" fill="#181717"></path>
<path d="M-0.000672291 25.0311C-0.000672668 33.6432 4.33638 41.2641 11.0278 45.725C16.5421 40.5206 20.0117 33.1476 20.0117 25.0311C20.0117 16.8526 16.5421 9.47966 11.0278 4.33716C4.33638 8.79812 -0.000671912 16.357 -0.000672291 25.0311Z" fill="#181717"></path>
</svg>