<svg width="226" height="50" viewBox="0 0 226 50" fill="none" xmlns="http://www.w3.org/2000/svg">
<path d="M34.4478 7.94642C35.2763 7.11586 35.7888 5.96996 35.7888 4.70426C35.7888 2.16869 33.7334 0.113281 31.1978 0.113281C29.5949 0.113281 28.1856 0.935993 27.3645 2.18092C27.1463 2.39953 1.9383 33.4662 1.76771 33.725C0.939217 34.5555 0.426758 35.7014 0.426758 36.9671C0.426758 39.5027 2.48217 41.5581 5.01774 41.5581C6.6207 41.5581 8.02998 40.7354 8.85108 39.4904C9.06899 39.2716 34.2772 8.20497 34.4478 7.94642Z" fill="#181717"></path>
<path d="M40.0003 24.8616C40.8309 24.0308 41.3445 22.8833 41.3445 21.6158C41.3445 19.0802 39.2891 17.0248 36.7535 17.0248C35.1499 17.0248 33.7401 17.8484 32.919 19.0943C32.699 19.3143 15.5748 40.4939 15.4028 40.7547C14.5722 41.5855 14.0586 42.7331 14.0586 44.0006C14.0586 46.5362 16.114 48.5916 18.6496 48.5916C20.2532 48.5916 21.663 47.7682 22.4841 46.5221C22.7041 46.3021 39.8286 25.1225 40.0003 24.8616Z" fill="#181717"></path>
<path d="M6.92284 15.514C9.45828 15.514 11.5137 13.4586 11.5137 10.9232C11.5137 8.38777 9.45828 6.3324 6.92284 6.3324C4.38741 6.3324 2.33203 8.38777 2.33203 10.9232C2.33203 13.4586 4.38741 15.514 6.92284 15.514Z" fill="#181717"></path>
<path d="M45.4171 15.5195C47.9526 15.5195 50.008 13.464 50.008 10.9286C50.008 8.39307 47.9526 6.33765 45.4171 6.33765C42.8816 6.33765 40.8262 8.39307 40.8262 10.9286C40.8262 13.464 42.8816 15.5195 45.4171 15.5195Z" fill="#181717"></path>
<g clip-path="url(#clip0_67_2013)">
<path d="M71.8956 36.85L65.0796 13.938H67.4796L72.1196 29.682C72.4396 30.802 72.7276 31.954 73.0156 33.458C73.3996 31.794 73.7196 30.802 74.0716 29.682L79.0636 13.938H81.4636L86.4556 29.682C86.8076 30.834 87.1276 31.986 87.4796 33.458C87.8316 31.698 88.1196 30.578 88.3756 29.714L93.1116 13.938H95.4476L88.5676 36.85H86.3916L80.2476 17.394L74.1036 36.85H71.8956ZM96.4774 36.85H94.1414L102.557 13.938H105.405L113.917 36.85H111.517L109.277 30.77H98.7174L96.4774 36.85ZM103.677 17.17L99.4214 28.754H108.541L104.253 17.17C104.157 16.85 103.997 16.466 103.965 16.242C103.933 16.434 103.805 16.85 103.677 17.17ZM120.227 27.282L112.451 13.938H115.043L120.707 23.826C120.963 24.306 121.155 24.69 121.379 25.202C121.667 24.626 121.667 24.626 122.083 23.826L127.683 13.938H130.211L122.531 27.282V36.85H120.227V27.282ZM137.225 13.458V33.074H147.017V36.85H133.129V13.458H137.225ZM154.444 13.458V36.85H150.348V13.458H154.444ZM163.661 36.85H159.629V13.458H163.693L174.669 30.034V13.458H178.701V36.85H174.669L163.661 20.274V36.85ZM198.407 36.85H183.879V13.458H198.407V17.234H187.975V23.25H197.319V26.866H187.975V33.074H198.407V36.85Z" fill="#1D1F17"></path>
</g>
<defs>
<clipPath id="clip0_67_2013">
<rect width="161" height="50" fill="white" transform="translate(65)"></rect>
</clipPath>
</defs>
</svg>